<svg width="3000" height="3000" viewBox="0 0 3000 3000" fill="none" xmlns="http://www.w3.org/2000/svg">
<rect x="0.5" y="0.5" width="2999" height="2999" stroke="black"/>
<path d="M691.865 172C714.611 171.949 735.43 184.765 745.63 205.096L1349.13 1408.1C1358.35 1426.48 1357.52 1448.3 1346.92 1465.93C1336.31 1483.55 1317.42 1494.52 1296.86 1494.98L1098.86 1499.48C1075.33 1500.02 1053.66 1486.75 1043.45 1465.55L692.301 736.841L345.164 1465.31C335.211 1486.2 314.136 1499.5 291 1499.5H92.9999C72.2389 1499.5 52.9532 1488.77 42.0107 1471.12C31.0683 1453.48 30.0241 1431.44 39.2499 1412.84L638.25 205.337L638.731 204.387C649.007 184.56 669.475 172.05 691.865 172Z" fill="#FF6600" stroke="#FF6600"/>
<path d="M2611.62 313.383C2631.67 293.434 2661.75 287.509 2687.87 298.363C2713.98 309.218 2731 334.721 2731 363.002V2517.86C2731 2556.52 2699.66 2587.86 2661 2587.86H2416.84C2378.18 2587.86 2346.84 2556.52 2346.84 2517.86V1131.16L656.393 2748.58C636.139 2767.96 606.277 2773.39 580.5 2762.37C554.722 2751.36 538 2726.03 538 2698V1378.38C538 1339.72 569.34 1308.38 608 1308.38H824.442C863.102 1308.38 894.442 1339.72 894.442 1378.38V2022.16L2611.62 313.383Z" fill="black" stroke="black"/>
<path d="M1885 2018C2017.55 2018 2125 2125.45 2125 2258C2125 2390.55 2017.55 2498 1885 2498C1752.45 2498 1645 2390.55 1645 2258C1645 2125.45 1752.45 2018 1885 2018Z" fill="#FF6600" stroke="#FF6600" stroke-width="20"/>
</svg>
